<mxfile host="app.diagrams.net" agent="Mozilla/5.0 (Windows NT 10.0; Win64; x64; rv:141.0) Gecko/20100101 Firefox/141.0" version="28.0.7">
  <diagram name="Page-1" id="K8zi8-V8lbPFwxs8yEM0">
    <mxGraphModel dx="1398" dy="1099" grid="1" gridSize="10" guides="1" tooltips="1" connect="1" arrows="1" fold="1" page="1" pageScale="1" pageWidth="850" pageHeight="1100" math="0" shadow="0">
      <root>
        <mxCell id="0" />
        <mxCell id="1" parent="0" />
        <mxCell id="yfEXp2PuEh9iGfuqsJ-h-6" value="" style="edgeStyle=orthogonalEdgeStyle;rounded=0;orthogonalLoop=1;jettySize=auto;html=1;" edge="1" parent="1" source="yfEXp2PuEh9iGfuqsJ-h-4" target="yfEXp2PuEh9iGfuqsJ-h-5">
          <mxGeometry relative="1" as="geometry" />
        </mxCell>
        <mxCell id="yfEXp2PuEh9iGfuqsJ-h-4" value="Start" style="rounded=1;whiteSpace=wrap;html=1;" vertex="1" parent="1">
          <mxGeometry x="365" y="40" width="75" height="20" as="geometry" />
        </mxCell>
        <mxCell id="yfEXp2PuEh9iGfuqsJ-h-8" value="" style="edgeStyle=orthogonalEdgeStyle;rounded=0;orthogonalLoop=1;jettySize=auto;html=1;" edge="1" parent="1" source="yfEXp2PuEh9iGfuqsJ-h-5" target="yfEXp2PuEh9iGfuqsJ-h-7">
          <mxGeometry relative="1" as="geometry" />
        </mxCell>
        <mxCell id="yfEXp2PuEh9iGfuqsJ-h-15" value="No" style="edgeLabel;html=1;align=center;verticalAlign=middle;resizable=0;points=[];" vertex="1" connectable="0" parent="yfEXp2PuEh9iGfuqsJ-h-8">
          <mxGeometry x="-0.44" y="-1" relative="1" as="geometry">
            <mxPoint x="-14" y="1" as="offset" />
          </mxGeometry>
        </mxCell>
        <mxCell id="yfEXp2PuEh9iGfuqsJ-h-5" value="1. Do you own the stock?" style="rhombus;whiteSpace=wrap;html=1;" vertex="1" parent="1">
          <mxGeometry x="362.5" y="110" width="80" height="80" as="geometry" />
        </mxCell>
        <mxCell id="yfEXp2PuEh9iGfuqsJ-h-10" value="" style="edgeStyle=orthogonalEdgeStyle;rounded=0;orthogonalLoop=1;jettySize=auto;html=1;" edge="1" parent="1" source="yfEXp2PuEh9iGfuqsJ-h-7" target="yfEXp2PuEh9iGfuqsJ-h-9">
          <mxGeometry relative="1" as="geometry" />
        </mxCell>
        <mxCell id="yfEXp2PuEh9iGfuqsJ-h-18" value="No" style="edgeLabel;html=1;align=center;verticalAlign=middle;resizable=0;points=[];" vertex="1" connectable="0" parent="yfEXp2PuEh9iGfuqsJ-h-10">
          <mxGeometry x="-0.1667" relative="1" as="geometry">
            <mxPoint as="offset" />
          </mxGeometry>
        </mxCell>
        <mxCell id="yfEXp2PuEh9iGfuqsJ-h-14" value="" style="edgeStyle=orthogonalEdgeStyle;rounded=0;orthogonalLoop=1;jettySize=auto;html=1;" edge="1" parent="1" source="yfEXp2PuEh9iGfuqsJ-h-7" target="yfEXp2PuEh9iGfuqsJ-h-12">
          <mxGeometry relative="1" as="geometry" />
        </mxCell>
        <mxCell id="yfEXp2PuEh9iGfuqsJ-h-19" value="Yes" style="edgeLabel;html=1;align=center;verticalAlign=middle;resizable=0;points=[];" vertex="1" connectable="0" parent="yfEXp2PuEh9iGfuqsJ-h-14">
          <mxGeometry x="-0.24" y="-1" relative="1" as="geometry">
            <mxPoint as="offset" />
          </mxGeometry>
        </mxCell>
        <mxCell id="yfEXp2PuEh9iGfuqsJ-h-7" value="2. Do you want to own it?" style="rhombus;whiteSpace=wrap;html=1;" vertex="1" parent="1">
          <mxGeometry x="220" y="110" width="80" height="80" as="geometry" />
        </mxCell>
        <mxCell id="yfEXp2PuEh9iGfuqsJ-h-9" value="3. Do nothing" style="rounded=0;whiteSpace=wrap;html=1;" vertex="1" parent="1">
          <mxGeometry x="90" y="135" width="70" height="30" as="geometry" />
        </mxCell>
        <mxCell id="yfEXp2PuEh9iGfuqsJ-h-11" value="5. Create record in &#39;delisted table" style="rounded=1;whiteSpace=wrap;html=1;" vertex="1" parent="1">
          <mxGeometry x="70" y="260" width="95" height="40" as="geometry" />
        </mxCell>
        <mxCell id="yfEXp2PuEh9iGfuqsJ-h-13" value="" style="edgeStyle=orthogonalEdgeStyle;rounded=0;orthogonalLoop=1;jettySize=auto;html=1;" edge="1" parent="1" source="yfEXp2PuEh9iGfuqsJ-h-12" target="yfEXp2PuEh9iGfuqsJ-h-11">
          <mxGeometry relative="1" as="geometry" />
        </mxCell>
        <mxCell id="yfEXp2PuEh9iGfuqsJ-h-20" value="Yes" style="edgeLabel;html=1;align=center;verticalAlign=middle;resizable=0;points=[];" vertex="1" connectable="0" parent="yfEXp2PuEh9iGfuqsJ-h-13">
          <mxGeometry x="-0.2364" relative="1" as="geometry">
            <mxPoint as="offset" />
          </mxGeometry>
        </mxCell>
        <mxCell id="yfEXp2PuEh9iGfuqsJ-h-12" value="4. Is company delisted?" style="rhombus;whiteSpace=wrap;html=1;" vertex="1" parent="1">
          <mxGeometry x="220" y="240" width="80" height="80" as="geometry" />
        </mxCell>
        <mxCell id="yfEXp2PuEh9iGfuqsJ-h-21" value="8. Add trades to trade log" style="rounded=1;whiteSpace=wrap;html=1;" vertex="1" parent="1">
          <mxGeometry x="230" y="380" width="95" height="40" as="geometry" />
        </mxCell>
        <mxCell id="yfEXp2PuEh9iGfuqsJ-h-24" value="" style="edgeStyle=orthogonalEdgeStyle;rounded=0;orthogonalLoop=1;jettySize=auto;html=1;" edge="1" parent="1" source="yfEXp2PuEh9iGfuqsJ-h-23" target="yfEXp2PuEh9iGfuqsJ-h-21">
          <mxGeometry relative="1" as="geometry" />
        </mxCell>
        <mxCell id="yfEXp2PuEh9iGfuqsJ-h-28" value="Yes" style="edgeLabel;html=1;align=center;verticalAlign=middle;resizable=0;points=[];" vertex="1" connectable="0" parent="yfEXp2PuEh9iGfuqsJ-h-24">
          <mxGeometry x="0.0667" y="-1" relative="1" as="geometry">
            <mxPoint as="offset" />
          </mxGeometry>
        </mxCell>
        <mxCell id="yfEXp2PuEh9iGfuqsJ-h-26" value="" style="edgeStyle=orthogonalEdgeStyle;rounded=0;orthogonalLoop=1;jettySize=auto;html=1;" edge="1" parent="1" source="yfEXp2PuEh9iGfuqsJ-h-23" target="yfEXp2PuEh9iGfuqsJ-h-25">
          <mxGeometry relative="1" as="geometry" />
        </mxCell>
        <mxCell id="yfEXp2PuEh9iGfuqsJ-h-27" value="No" style="edgeLabel;html=1;align=center;verticalAlign=middle;resizable=0;points=[];" vertex="1" connectable="0" parent="yfEXp2PuEh9iGfuqsJ-h-26">
          <mxGeometry x="-0.48" relative="1" as="geometry">
            <mxPoint as="offset" />
          </mxGeometry>
        </mxCell>
        <mxCell id="yfEXp2PuEh9iGfuqsJ-h-23" value="6. Do you have past trades?" style="rhombus;whiteSpace=wrap;html=1;" vertex="1" parent="1">
          <mxGeometry x="80" y="360" width="80" height="80" as="geometry" />
        </mxCell>
        <mxCell id="yfEXp2PuEh9iGfuqsJ-h-25" value="10. Do nothing more" style="rounded=1;whiteSpace=wrap;html=1;" vertex="1" parent="1">
          <mxGeometry x="72.5" y="490" width="95" height="40" as="geometry" />
        </mxCell>
        <mxCell id="yfEXp2PuEh9iGfuqsJ-h-29" value="9. Do you have past dividends?" style="rhombus;whiteSpace=wrap;html=1;" vertex="1" parent="1">
          <mxGeometry x="410" y="360" width="80" height="80" as="geometry" />
        </mxCell>
        <mxCell id="yfEXp2PuEh9iGfuqsJ-h-30" value="" style="endArrow=classic;html=1;rounded=0;entryX=0;entryY=0.5;entryDx=0;entryDy=0;exitX=1;exitY=0.5;exitDx=0;exitDy=0;" edge="1" parent="1" source="yfEXp2PuEh9iGfuqsJ-h-21" target="yfEXp2PuEh9iGfuqsJ-h-29">
          <mxGeometry width="50" height="50" relative="1" as="geometry">
            <mxPoint x="370" y="600" as="sourcePoint" />
            <mxPoint x="420" y="550" as="targetPoint" />
          </mxGeometry>
        </mxCell>
        <mxCell id="yfEXp2PuEh9iGfuqsJ-h-31" value="" style="endArrow=classic;html=1;rounded=0;exitX=0.5;exitY=1;exitDx=0;exitDy=0;entryX=0.5;entryY=0;entryDx=0;entryDy=0;" edge="1" parent="1" source="yfEXp2PuEh9iGfuqsJ-h-11" target="yfEXp2PuEh9iGfuqsJ-h-23">
          <mxGeometry width="50" height="50" relative="1" as="geometry">
            <mxPoint x="370" y="600" as="sourcePoint" />
            <mxPoint x="120" y="350" as="targetPoint" />
          </mxGeometry>
        </mxCell>
        <mxCell id="yfEXp2PuEh9iGfuqsJ-h-35" style="edgeStyle=orthogonalEdgeStyle;rounded=0;orthogonalLoop=1;jettySize=auto;html=1;exitX=0.75;exitY=0;exitDx=0;exitDy=0;" edge="1" parent="1" source="yfEXp2PuEh9iGfuqsJ-h-33">
          <mxGeometry relative="1" as="geometry">
            <mxPoint x="450" y="440" as="targetPoint" />
          </mxGeometry>
        </mxCell>
        <mxCell id="yfEXp2PuEh9iGfuqsJ-h-38" value="Yes" style="edgeLabel;html=1;align=center;verticalAlign=middle;resizable=0;points=[];" vertex="1" connectable="0" parent="yfEXp2PuEh9iGfuqsJ-h-35">
          <mxGeometry x="0.1886" y="-1" relative="1" as="geometry">
            <mxPoint as="offset" />
          </mxGeometry>
        </mxCell>
        <mxCell id="yfEXp2PuEh9iGfuqsJ-h-33" value="11. Register dividends in dividend log" style="rounded=1;whiteSpace=wrap;html=1;" vertex="1" parent="1">
          <mxGeometry x="380" y="560" width="95" height="40" as="geometry" />
        </mxCell>
        <mxCell id="yfEXp2PuEh9iGfuqsJ-h-34" value="" style="endArrow=classic;html=1;rounded=0;entryX=1;entryY=0.5;entryDx=0;entryDy=0;exitX=0.5;exitY=1;exitDx=0;exitDy=0;" edge="1" parent="1" source="yfEXp2PuEh9iGfuqsJ-h-29" target="yfEXp2PuEh9iGfuqsJ-h-25">
          <mxGeometry width="50" height="50" relative="1" as="geometry">
            <mxPoint x="370" y="600" as="sourcePoint" />
            <mxPoint x="420" y="550" as="targetPoint" />
          </mxGeometry>
        </mxCell>
        <mxCell id="yfEXp2PuEh9iGfuqsJ-h-39" value="No" style="edgeLabel;html=1;align=center;verticalAlign=middle;resizable=0;points=[];" vertex="1" connectable="0" parent="yfEXp2PuEh9iGfuqsJ-h-34">
          <mxGeometry x="0.0384" y="-1" relative="1" as="geometry">
            <mxPoint as="offset" />
          </mxGeometry>
        </mxCell>
        <mxCell id="yfEXp2PuEh9iGfuqsJ-h-40" value="" style="endArrow=classic;html=1;rounded=0;entryX=0.584;entryY=0.075;entryDx=0;entryDy=0;entryPerimeter=0;exitX=0.5;exitY=1;exitDx=0;exitDy=0;" edge="1" parent="1" source="yfEXp2PuEh9iGfuqsJ-h-12" target="yfEXp2PuEh9iGfuqsJ-h-25">
          <mxGeometry width="50" height="50" relative="1" as="geometry">
            <mxPoint x="172.5" y="880" as="sourcePoint" />
            <mxPoint x="362.5" y="710" as="targetPoint" />
          </mxGeometry>
        </mxCell>
        <mxCell id="yfEXp2PuEh9iGfuqsJ-h-42" value="No" style="edgeLabel;html=1;align=center;verticalAlign=middle;resizable=0;points=[];" vertex="1" connectable="0" parent="yfEXp2PuEh9iGfuqsJ-h-40">
          <mxGeometry x="-0.7466" y="3" relative="1" as="geometry">
            <mxPoint x="1" as="offset" />
          </mxGeometry>
        </mxCell>
        <mxCell id="yfEXp2PuEh9iGfuqsJ-h-41" value="" style="endArrow=classic;html=1;rounded=0;entryX=0.5;entryY=0;entryDx=0;entryDy=0;exitX=0.5;exitY=1;exitDx=0;exitDy=0;" edge="1" parent="1" source="yfEXp2PuEh9iGfuqsJ-h-21" target="yfEXp2PuEh9iGfuqsJ-h-25">
          <mxGeometry width="50" height="50" relative="1" as="geometry">
            <mxPoint x="370" y="600" as="sourcePoint" />
            <mxPoint x="420" y="550" as="targetPoint" />
          </mxGeometry>
        </mxCell>
      </root>
    </mxGraphModel>
  </diagram>
</mxfile>
